<svg xmlns="http://www.w3.org/2000/svg" height="48" viewBox="0 -960 960 960" width="48"><path d="M448.765-178q-110.682 0-186.223-75.042Q187-328.083 187-440.601q0-8.18.5-15.859.5-7.68 1.5-13.54-3-1-6.27 0-3.271 1-4.726 1-52.123 0-87.063-34.566Q56-538.132 56-590.866q0-53.154 33.567-88.144T175.711-714q33.379 0 65.334 20Q273-674 289-646q25-23 68.3-39.5 43.301-16.5 92.909-16.5H905v142.647H711v119.824q0 111.446-75.985 186.487Q559.029-178 448.765-178ZM178-550q18.425 0 29.212-10.787Q218-571.575 218-590.5t-11-29.213Q196-630 178-630q-18.425 0-29.212 10.713Q138-608.575 138-591q0 19.425 11 30.213Q160-550 178-550Zm271.121 250q59.707 0 99.793-39.914Q589-379.828 589-439.707q0-59.879-40.207-100.086t-100-40.207Q389-580 349-539.672q-40 40.329-40 100.207 0 59.879 40.207 99.672T449.121-300Zm.003-60q32.708 0 56.292-23.414Q529-406.828 529-439.708q0-32.879-23.708-56.586Q481.584-520 448.792-520T392.5-496.17Q369-472.34 369-439.46q0 32.879 23.708 56.17Q416.416-360 449.124-360ZM449-440Z"/></svg>